<?xml version="1.0" encoding="UTF-8" standalone="no"?>
<svg
   id="bird-cells"
   viewBox="0 0 5000 510"
   version="1.1"
   sodipodi:docname="birdFramesLarge.svg"
   inkscape:version="1.1.2 (b8e25be833, 2022-02-05)"
   width="5000"
   height="510"
   xmlns:inkscape="http://www.inkscape.org/namespaces/inkscape"
   xmlns:sodipodi="http://sodipodi.sourceforge.net/DTD/sodipodi-0.dtd"
   xmlns="http://www.w3.org/2000/svg"
   xmlns:svg="http://www.w3.org/2000/svg">
  <defs
     id="defs49">
    <inkscape:path-effect
       effect="spiro"
       id="path-effect18005"
       is_visible="true"
       lpeversion="1" />
    <inkscape:path-effect
       effect="spiro"
       id="path-effect17776"
       is_visible="true"
       lpeversion="1" />
    <inkscape:path-effect
       effect="spiro"
       id="path-effect17467"
       is_visible="true"
       lpeversion="1" />
    <inkscape:path-effect
       effect="spiro"
       id="path-effect17044"
       is_visible="true"
       lpeversion="1" />
    <inkscape:path-effect
       effect="spiro"
       id="path-effect16633"
       is_visible="true"
       lpeversion="1" />
    <inkscape:path-effect
       effect="spiro"
       id="path-effect13908"
       is_visible="true"
       lpeversion="1" />
    <inkscape:path-effect
       effect="spiro"
       id="path-effect13017"
       is_visible="true"
       lpeversion="1" />
    <inkscape:path-effect
       effect="spiro"
       id="path-effect13013"
       is_visible="true"
       lpeversion="1" />
    <inkscape:path-effect
       effect="spiro"
       id="path-effect13009"
       is_visible="true"
       lpeversion="1" />
    <inkscape:path-effect
       effect="spiro"
       id="path-effect12124"
       is_visible="true"
       lpeversion="1" />
    <inkscape:path-effect
       effect="spiro"
       id="path-effect12112"
       is_visible="true"
       lpeversion="1" />
    <inkscape:path-effect
       effect="spiro"
       id="path-effect11190"
       is_visible="true"
       lpeversion="1" />
    <inkscape:path-effect
       effect="spiro"
       id="path-effect9827"
       is_visible="true"
       lpeversion="1" />
    <inkscape:path-effect
       effect="spiro"
       id="path-effect9602"
       is_visible="true"
       lpeversion="1" />
    <inkscape:path-effect
       effect="spiro"
       id="path-effect7758"
       is_visible="true"
       lpeversion="1" />
    <inkscape:path-effect
       effect="spiro"
       id="path-effect7754"
       is_visible="true"
       lpeversion="1" />
    <inkscape:path-effect
       effect="spiro"
       id="path-effect6536"
       is_visible="true"
       lpeversion="1" />
    <inkscape:path-effect
       effect="spiro"
       id="path-effect6532"
       is_visible="true"
       lpeversion="1" />
    <inkscape:path-effect
       effect="spiro"
       id="path-effect6520"
       is_visible="true"
       lpeversion="1" />
    <inkscape:path-effect
       effect="spiro"
       id="path-effect6516"
       is_visible="true"
       lpeversion="1" />
    <inkscape:path-effect
       effect="spiro"
       id="path-effect933"
       is_visible="true"
       lpeversion="1" />
  </defs>
  <sodipodi:namedview
     id="namedview47"
     pagecolor="#505050"
     bordercolor="#eeeeee"
     borderopacity="1"
     inkscape:pageshadow="0"
     inkscape:pageopacity="0"
     inkscape:pagecheckerboard="0"
     showgrid="false"
     inkscape:zoom="0.25"
     inkscape:cx="4440"
     inkscape:cy="-460"
     inkscape:window-width="3440"
     inkscape:window-height="1387"
     inkscape:window-x="-8"
     inkscape:window-y="-8"
     inkscape:window-maximized="1"
     inkscape:current-layer="layer8"
     width="4772.2998px" />
  <g
     inkscape:groupmode="layer"
     id="layer1"
     inkscape:label="Bird"
     sodipodi:insensitive="true"
     style="display:none;opacity:0.269017">
    <g
       fill="none"
       fill-rule="evenodd"
       id="g44">
      <g
         id="g42">
        <path
           class="cell-container"
           stroke="none"
           d="m 0.5,0.5 h 359 v 509 H 0.5 Z"
           id="path2" />
        <path
           class="cell-container"
           stroke="none"
           d="m 359.5,0.5 h 359 v 509 h -359 z"
           id="path4" />
        <path
           class="cell-container"
           stroke="none"
           d="m 718.5,0.5 h 359 v 509 h -359 z"
           id="path6" />
        <path
           class="cell-container"
           stroke="none"
           d="m 1077.5,0.5 h 370 v 509 h -370 z"
           id="path8" />
        <path
           class="cell-container"
           stroke="none"
           d="m 1448.5,0.5 h 370 v 509 h -370 z"
           id="path10" />
        <path
           class="cell-container"
           stroke="none"
           d="m 1818.5,0.5 h 370 v 509 h -370 z"
           id="path12" />
        <path
           class="cell-container"
           stroke="none"
           d="m 2189.5,0.5 h 370 v 509 h -370 z"
           id="path14" />
        <path
           class="cell-container"
           stroke="none"
           d="m 2559.5,0.5 h 370 v 509 h -370 z"
           id="path16" />
        <path
           class="cell-container"
           stroke="none"
           d="m 2930.5,0.5 h 370 v 509 h -370 z"
           id="path18" />
        <path
           class="cell-container"
           stroke="none"
           d="m 3300.5,0.5 h 370 v 509 h -370 z"
           id="path20" />
        <path
           fill="#000000"
           d="m 51,288.38 c 13.33,-5.34 35.33,-9.34 66,-12 0,0 18.44,-9.95 55,-15 1.04,-0.15 7.5,-8 36,-13 16,0 21,-3.88 30,5 3.53,-13.53 19.13,-16.58 29,-15 6.9,1.1 11.3,5.93 12,8 4,12 21,5 30,12 -23,6 -23,7 -32,11 -16,14 -31,31 -47,31 -16,4 -32.83,5.33 -50.5,4 -1,4 -3.5,6.66 -7.5,8 -6,2 -1,-9 -4,-12 -3,-3 -3,10 -17,18 -1,-14 -5,-10 -5,-18 0,-8 4,13 -17,18 -14,3.33 -31.67,4 -53,2 26,-8.67 41.33,-16.34 46,-23 -5,0 -18,-1 -21,-9 -14,-4.5 -30.67,-4.5 -50,0 z"
           id="path22" />
        <path
           fill="#000000"
           d="m 639,273 c 0,2.07 -10,3 -16,5 -9,1 -8,8 -14,7 -6,-1 -5,8 -19,14 2,11 21,9 36,19 29,30.62 18,19 37,63 14,28 18,30 27,57 -1,1 -11,-1 -14,-7 -1,5 -5,1 -4,7 -5,-1 -8,-8 -12,-11 -4,-1 1,7 -2,8 -4,0 -5,-8 -9,-8 -4,1 1,6 -2,7 -33,-30 -43,-21 -43,-36 -8,10 -10,-2 -19,3 -4,-5 -6,-10 -2,-17 -1,-5 -7,5 -11,3 -1.33,-6 1,-12.67 7,-20 -6.67,6.67 -14,10 -22,10 1,-10 -1,-6.5 5,-16 -6,7.5 -13,8 -19,6 -4.43,-2.1 4,-8 2,-11.5 -8,0 -22.76,-0.3 -24,-3.5 -3.26,-8.4 8,-19 4,-25 -3.12,-4.67 -12,9 -15,-3 0,-12 -4.67,-17 -14,-15 -8.67,-1.33 -19.33,-1.33 -32,0 -19,2 -27,-5 -58,-5 10,-5 9,-13 27,-13 -21,-3 -10,-10 -45,-13 30,-8 32,0 54,7 68,-7 22,-15 94,-22 14,-2 36,-4 58,2 5,-2 6,-5 15,-6 8,0 12.67,3.67 14,11 10.67,0.72 16,1.72 16,3 z"
           id="path24" />
        <path
           fill="#000000"
           d="m 729,299.03 c 32,-14 56,-26 90,-40 20,-6 37,-5 56,-8 28,0 17,-8 55,-3 8,-1 10.95,-7.5 19,-7 8.67,0 13.33,2.66 14,8 l 26,5 -24,5 c -2.67,5.33 -8,8.33 -16,9 -12,12 -11,18 -29,21 22,13 23,17 64,38 13,11 13,15 17,31 4,15.98 14.06,25.74 21,35 26,46 23,59 45,80 -11,-1 -23,-8 -28,-13 -4,-1 -3,5 -3,8 -6,-2 -8,-15 -16,-13 -3.46,0 4,5 0,13 -13,-5 -14,-7 -16,-13 -3,-4 -7,-11 -3,-12 -2,8 0,12 -6,12 -5,-10 -7,-3 -11,-12 -8,-14 -17,-12 -17,-29 -4,0 -7,4 -10,9 -3,-4 0,-9 -1,-12 -2,0.66 -4.33,1.66 -7,3 -2,-12.67 -2,-21.67 0,-27 -8,2 -4,6 -15,10 -5,-6 -4,-12 -2,-21 -5,6 -5,-3 -12,2 -9,-9 -10,-18 -25,-18 -5,-12 -3,-20 -11,-22 -3.23,0.86 -4,10 -6,7 -2,-3 -2,-10 -5,-12 -2,-3 -6,6 -9,3 0,-5 -2,-11 -6,-14 -3,-4 -5,0 -10,3 -2,-5 -2,-9 -1,-14 -4,-1 -14,5 -12,-2 0,-7 -4,-4 -8,-4 -5,0 1,-5 -1,-6 -5,-2 -13,2 -21,6 -5,-2 4,-10 0,-10 -31,-1 -38,7 -76,4 z"
           id="path26" />
        <path
           fill="#000000"
           d="m 1367,254.1 -18,-3 c -2,-6 -5.33,-9.35 -10,-10 -14,-1 -17,7 -22,10 -21,-3 -19,-1 -35,0 -30,-5 -36,4 -50,7 -36,5 -33,9 -48,16 -34,18 -41,19 -75,29 6.67,0.65 14,0 22,-2 -14.67,4 -21,6.32 -19,7 31,-5 29.02,4.23 52,0 11,-3 10,-9 13,-12 2,7 1,7 2,13 16,-3 21,-2 30,-2 3,4 -3.66,8.6 0,10 4,-1.35 9.33,-2.68 16,-4 -4,4.65 -5.67,8.32 -5,11 15,2 12,4 24,1 -11,4 -11,4 -16,10 16,3 14,1 24,2 -4,4 -3,8 -1,11 6,-3 9.53,-4.5 12,-3 -3,3.44 -5,7 -2,9 10,-2 12.4,-5.28 15,-2 -3,8 0,11 1,22 5,0 10,-2 15,-4 1,8 -3,8 -3,16 6,3 13,-3 17,-1 -7,4 -7,6 -8,9 7,3 6,2 14,0 -5.33,4 -7,7.65 -5,11 5.33,-3.35 8.33,-3.35 9,0 -2,6 0,7 1,15 10,-5 10,2 21,5 5.97,3.27 6.4,10.54 11,14 9,6.74 20,9 19,9 -1,0 -9,-11 -5,-10 3.33,4 7.67,8.32 13,13 0,-8 -0.67,-13.68 -2,-17 9,14 12,12 28,23 3,-13 -6,-18 -15,-28 19,22 19,20 30,24 -24,-30 -20,-26 -29,-53 -14,-26 -24,-61 -39,-75 -18,-12 -19,-17 -38,-26 -3.33,-4.68 -7.33,-8 -12,-10 12,-2 21.33,-5.68 28,-11 2,-5 7,-5 11,-9 6,-1.35 9.67,-4.35 11,-9 z"
           id="path28" />
        <path
           fill="#000000"
           d="m 1751,256 c -11,-1 -12,-4 -24,-6 -3,-6 -4,-5 -10,-7 -14,0 -21,7 -29,12 -24,-3 -31,-1 -44,2 -46,12 -43,12 -70,23 -46,27 -39,30 -58,40 23,6 31,-3 47,-7 -6.67,2.67 -8.67,6 -6,10 6.67,-2.67 11,-3.67 13,-3 -5,2 -9.7,10.57 -5,10 27,-2 30.7,-14.27 46,-15 -4,5 -6,8 -4,13 12,-3 11,-2 18,-4 -2,6 -3,6 0,15 8.5,2 13,-5 13,-5 4,4 0,11 0,20 11,0 11,2 15,0 -2,8 2,8 5,14 4,-8 7,-5 14,-12 -2,13 5,12 6,21 10,-9 11,-11 13,-21 -4,15 2,17 5,28 4,-7 7,-7 8,-16 1,5 3.98,7.87 5,6 3,-10 3.32,-8.12 4,-6 -3,13 2,16 5,27 7,-12 5,-18 5,-19 2,15 15,8 28,33 4,-14 -16,-38 -23,-73 -4,-23 -3,-28 -14,-43 -3,-7 -10,-8 -13,-7 8,-4 7,-8 12,-15 15,-2 11,-5 15,-10 -1,0 5,-4 23,-5 z"
           id="path30" />
        <path
           fill="#000000"
           d="m 2119.66,270.36 c 0,-3 -11,-6 -20,-6 -1.34,-2.67 -3.67,-5 -7,-7 -5.34,-2.67 -12.34,-2.67 -21,0 -8,1 -16,-13 -8,-26 7,-3 10,-9 11,-14 -8,-4 -11,-5 -22,-4 -65,4 -85,28 -110,50 -8,7 10,5 18,5 -42,0 -78,41 -72,37 6,-4 16,6 35,-11 2,-1 -7,5 -15,15 21,-3 21,-6 39,-4 -2,7 3.6,7.22 9,8 4.33,0.62 9.2,-0.44 15,0 12.53,1.4 13,-1 18,-1 6,0 5.35,0.6 9,0 9,-2 7,-3 10,-7 -3,8 1,11 6,21 7,-6 6,-14 6,-19 0,13 -1,9 2,17 6,-5 6,-4 8,-12 -3,10 -1,17 3,28 5,0 6.84,-4.66 10,-3 0,5 0,3 6,13 5,-5 2,3 7,-8 -1,10 4,4 10,18 5,-10 3,-14 -1,-23 6,13 8,12 13,19 2,-19 -1,-23 -7,-36 3,-19 -6,-20 -5,-33.5 8,-10.5 15,2 24,-6.5 7,-1 4,-4 9,-7 8,-5 19,1 20,-3 z"
           id="path32" />
        <path
           fill="#000000"
           d="m 2485,278.84 c -6,-3 -7,-1 -16,-3 1,-5 -4.66,-10 -11,-10 -9.16,0 -9.5,5.2 -21,8 -9,2.2 -12.7,3.03 -18,-2 -24,-15 -11,-19 -32,-44 -9,-7 -12,-11 -4,-21 13,-14 17,-22 17,-32 -4,-7 -85,-3 -113,34 5.06,1.15 16.8,-6.7 20.65,-6 4.35,1 -18.65,13 -9.65,11 9,-2 15,-7 21,-7 2.67,-0.05 -2,2 -3,7 3.78,0.9 9.8,-1.85 16,-3 3.52,-0.65 7.9,0.34 10,0 -4,3 -10,1 -20,17 6,5.5 14,-1.5 20,-1.5 -3,5.5 -11,2.5 -15,20.5 2,4 11,-6 9,-2 0,4 -7,2 -9,18 6,0 8,-7 9,-2 -2,3 -5,3 -5,9 3,3 9,-4 11,-4 -1,2 -6,2 -6,10 -38,9 -49,18 -68,30 7,4.9 23,-5 25,-1 -1.46,3.22 -11,5.9 -28,11 17,2 31,2 42.65,-5.1 10.35,1.1 18.57,-1.9 21.35,-1.9 4,6 0,13 7,15 3,-5 8,-12 9,-15 3,-2 -5,11 3,13 9,0 19,7 36,7 18,0 22,-6 42,-13 12,-1 20,-5 25,-18 3,-8 9,-4 18,-13 2,-2 12,-3 16,-6 z"
           id="path34" />
        <path
           fill="#000000"
           d="m 2859,275.74 c -0.52,-2.35 -8,-3 -20,-5 -6.62,-3.1 -7.68,-9 -14,-9 -13,0 -7.83,6.16 -21,9 -7.7,1.67 -15,2 -20,0 -5,-2 -6.32,-3.7 -10,-6 -19.2,-11.9 -10.17,0.25 -19.17,-20 -10.54,-12 -10.6,-24.55 -6.83,-42 0.97,-4.5 2.27,-8.15 4,-11 6,-9.83 12.67,-30.6 11,-45 -1.4,-12.16 -11,-14 -27,-17 -21,-4 -33,-5 -58,-2 -9,8 -21,5 -33,21 9,-1 7,-3 14,3 8,-4 15.48,-1.3 16,-1 7.16,4.13 -3.54,3.73 1,6 6,0 2,4 0,9 5,-0.5 8,-1 6,4 4.4,3.22 8.36,-3.24 9,1 0.86,5.76 -11.7,9.4 -9,17 18,3 20,5 22,7 -4,1 3,2 -26,11 3,10 14,6 15,16 0,7 -9,4 -12,17 12,2 9,6 23,6 -5,0 -18,4 -26,12 9,2 6,6 14,7 7,3 6,3.36 4,7 -6.5,11.86 -5,15 -20,23 -15,8 -26.3,15.78 -35,22 -4.63,3.32 -7.48,8.23 -11,12 12,-2 12,-3 15,-2 2,4 1,-3 0,11 6,-5 16,-12 22,-16 5,0 13,-3 17,0 5,0 0,-7 0,-8.96 0,-1.96 3.48,5.8 5,3.96 5,-6 4,-9 3,-14 4,3 1,10.9 6,12 19,6 21,5 42,-1 1.2,-0.07 2.95,-0.92 4.3,-0.96 1.2,1.42 0.7,3 3.7,3.96 1.57,-2.35 4.93,-3.06 6.83,-3.1 0.52,0 -0.24,-0.93 0,-0.86 10,3 17.17,3.96 32.17,0.96 13,-8 24,-5 35,-17 14,-6 14,-10 17,-16 4,-3 9,0 20,-4 z"
           id="path36" />
        <path
           fill="#000000"
           d="m 3243,286 c -8,-3 -7,-2 -17,-4 -7.6,-3.28 -5,-11 -21,-13 -16.1,1.03 -15,14 -31,13 -10.43,-0.65 -13,-7 -21,-11 -8,-4 -13,-5 -19,-12 -13,-42 -1.27,-9.56 -3,-59 -0.27,-7.56 -6,-44 -1,-54 8,-3 4.84,-13.8 0,-22 -32,-34 -40.22,-58.03 -60,-79 -4,-1 5,12 -2,7 -8.8,-5.08 -7,-14 -23,-22 1,5 4,12 2,15 -5,-3 -14,-23 -20,-23 1,4 8,11 8,23 0,4 -14,-6 -9,-1 5,5 7,13 9,19 7.25,13.18 22,23 22,22 -3,-1 -17,-12 -26,-11 2,5 8,7 10,17 -2,2 0,3 -8,0 4,19 14,28 35,41 2.6,4.24 -11.1,-4.18 -14,-1 -2.6,2.82 1.67,8.6 5,15 9.17,17.6 18.32,18.92 20,30 -1,4 -9.77,-1.26 -14,2 -2.27,1.74 4.75,5.74 4,10 -0.75,4.24 -9.22,1.68 -8,6 2.48,2.98 -2,12 -1,17 1,5 4,6 4,11 0,5 7,-2 8,6 5,4 -1,4 -8,12 5,5 10,4 8,14 -2,10 -7,6 -12,12 -5,7 -3,11 -10,17 -9,8 -15,4 -31,16 -13,7 -14,2 -30,13 18,2 36,12 68,5 5,2 -5,5 -2,7 14,1 16,3 23,0 -4,3 -10.62,8.7 -7,9 8.53,0.74 23.38,-0.95 30,0 8.4,1.2 12.75,5 27,5 7.7,0 16.25,-8.18 21,-7 7.3,1.8 6,2.93 17,0 19.33,-5.15 24,-9 39,-19 8,-12 13,-9 20,-21 11,-2 18,-2 18,-5 z"
           id="path38" />
        <path
           fill="#000000"
           d="m 3595.2,274 c 0,-2.56 -5,-4 -13,-7 -4.25,-3.13 0,-8 -10,-10 -17,0 -11.03,8.98 -21,12 -10,-1 -9,-2 -21,1 -4.15,1.04 -3.9,-10.8 -6,-13 -2.97,-3.06 -5,-3 -10,-8 -3,-11 6,-24 3,-45 -1.34,-9.32 -4.68,-21.56 -9,-33 -2.45,-13.1 -2,-10 -13,-23 -21,-28 -37,-37 -47,-67 -4.96,-4.56 -0.68,12.44 -5,11 -7.68,-2.56 -15.4,-19 -19,-19 -2.9,0 7.5,17.9 4,23 -3,4.4 -17,-7.67 -17,-5 0,3.33 8,16 15,19 -4,4 -9.5,-4.6 -11,-1 7,9 1,11 6,24 5.77,12.05 11,8 16,18 -3.62,4.17 -24.5,-6.8 -26,-3 -1.02,2.53 9.7,2.7 17,10 6,6 1.8,13.48 6,16 5,3 2,6 8,13 6,7 10,-2 8,8 -0.94,4.66 -4,4.34 -4,9 0,5.34 8,-1 6,5 0,2.57 -4,4 -6,8 0,0.72 7.58,-1.47 8,1 1.08,6.53 -7.23,11.8 -4,17 3.27,5.3 12,4 17,3 -5,4 -13,3.95 -13,9 0,9.45 10,13 4,18 2,5 -5,9 -4,13 1,4 5.17,8.47 10,10 3.24,1.03 9,2 6,3 -6,2 -7,-1 -12,3 -4.25,0 -2,-6 -10,-4 -24,4 -60,20 -73,34 -2,3 12,-3 21,-4 -8,3 -20,7 -5,6 11,1 28,0 57,-5 21.46,-0.66 17,7 39,2 11,3 28,6 43,-5 14,-2 15.58,-9.85 33,-23 6,-2 11,-11 14,-17 7.8,-3.53 12,-1 18,-4 z"
           id="path40" />
      </g>
    </g>
  </g>
  <g
     inkscape:groupmode="layer"
     id="layer7"
     inkscape:label="birds"
     style="opacity:1">
    <g
       inkscape:groupmode="layer"
       id="layer2"
       inkscape:label="Draw1"
       style="display:inline">
      <path
         style="opacity:1;fill:#8e7467;fill-opacity:1;stroke:none;stroke-width:0;stroke-opacity:0.0714285"
         d="m 387.19377,252.95361 c -7.59885,-0.1215 -15.65461,2.72726 -20.24831,9.03649 -1.36116,1.7056 -2.12186,3.7694 -2.78117,5.80823 -0.9699,0.0412 -1.75677,-1.00837 -2.5841,-1.4727 -6.45975,-4.66466 -14.63168,-6.02937 -22.44242,-5.83176 -15.38805,0.37785 -30.72101,2.13652 -45.90998,4.57681 -39.84933,6.58441 -78.74233,19.16684 -114.75041,37.48619 -0.78031,0.20453 -0.46691,1.10776 0.22805,1.1667 30.36457,13.07627 63.24241,20.25083 96.27719,21.27075 12.13849,0.16465 24.30479,0.0329 36.38022,-1.33752 14.43737,-1.42981 28.72126,-4.26489 42.71571,-8.01312 0.75705,-0.31562 1.69408,-0.17496 2.36435,-0.53522 0.84666,-0.34534 2.04761,-0.22589 3.00119,-0.53626 6.90775,-1.24387 13.32079,-4.44821 18.81591,-8.76224 8.65173,-6.58004 16.18158,-14.49176 24.5337,-21.41339 2.95445,-1.77774 6.35637,-2.81835 9.54705,-4.15147 6.71388,-2.62928 13.61824,-4.69023 20.52654,-6.70084 0.70915,-0.008 1.45485,-0.88522 0.5557,-1.26727 -3.71055,-2.10229 -8.0135,-2.47896 -12.17005,-2.89274 -4.59784,-0.63307 -9.79709,-0.54825 -13.46512,-3.85109 -2.2705,-2.13813 -2.98353,-5.52829 -5.44606,-7.58415 -2.99141,-2.88783 -6.94428,-4.81761 -11.1471,-4.9001 -1.33145,-0.09 -2.66681,-0.10672 -4.00089,-0.0953 z"
         id="path6655" />
      <path
         style="display:inline;fill:#8e7467;fill-opacity:1;stroke:none;stroke-width:0;stroke-opacity:0.0714285"
         d="m 1118.551,252.95361 c -7.5988,-0.1215 -15.6546,2.72726 -20.2483,9.03649 -1.3612,1.7056 -2.1219,3.7694 -2.7812,5.80823 -0.9699,0.0412 -1.7567,-1.00837 -2.5841,-1.4727 -6.4597,-4.66466 -14.6316,-6.02937 -22.4424,-5.83176 -15.388,0.37785 -30.721,2.13652 -45.91,4.57681 -39.84929,6.58441 -78.74229,19.16684 -114.75039,37.48619 -0.7803,0.20453 -0.4669,1.10776 0.2281,1.1667 30.3645,13.07627 63.2424,20.25083 96.27719,21.27075 12.1384,0.16465 24.3048,0.0329 36.3802,-1.33752 14.4374,-1.42981 28.7212,-4.26489 42.7157,-8.01312 0.757,-0.31562 1.6941,-0.17496 2.3643,-0.53522 0.8467,-0.34534 2.0477,-0.22589 3.0012,-0.53626 6.9078,-1.24387 13.3208,-4.44821 18.8159,-8.76224 8.6518,-6.58004 16.1816,-14.49176 24.5336,-21.41339 2.9546,-1.77774 6.3565,-2.81835 9.5472,-4.15147 6.7139,-2.62928 13.6182,-4.69023 20.5265,-6.70084 0.7092,-0.008 1.4549,-0.88522 0.5557,-1.26727 -3.7105,-2.10229 -8.0135,-2.47896 -12.17,-2.89274 -4.5979,-0.63307 -9.7971,-0.54825 -13.4651,-3.85109 -2.2705,-2.13813 -2.9836,-5.52829 -5.4462,-7.58415 -2.9913,-2.88783 -6.9442,-4.81761 -11.147,-4.9001 -1.3314,-0.09 -2.6668,-0.10672 -4.0009,-0.0953 z"
         id="path6655-1" />
      <path
         style="display:inline;fill:#8e7467;fill-opacity:1;stroke:none;stroke-width:0;stroke-opacity:0.0714285"
         d="m 752.87246,252.95361 c -7.5988,-0.1215 -15.6546,2.72726 -20.2483,9.03649 -1.3612,1.7056 -2.1219,3.7694 -2.7812,5.80823 -0.9699,0.0412 -1.7567,-1.00837 -2.5841,-1.4727 -6.4597,-4.66466 -14.6316,-6.02937 -22.4424,-5.83176 -15.388,0.37785 -30.721,2.13652 -45.91,4.57681 -39.8493,6.58441 -78.7423,19.16684 -114.7504,37.48619 -0.7803,0.20453 -0.4669,1.10776 0.2281,1.1667 30.3645,13.07627 63.2424,20.25083 96.2772,21.27075 12.1384,0.16465 24.3048,0.0329 36.3802,-1.33752 14.4374,-1.42981 28.7212,-4.26489 42.7157,-8.01312 0.757,-0.31562 1.6941,-0.17496 2.3643,-0.53522 0.8467,-0.34534 2.0477,-0.22589 3.0012,-0.53626 6.9078,-1.24387 13.3208,-4.44821 18.8159,-8.76224 8.6518,-6.58004 16.1816,-14.49176 24.5337,-21.41339 2.9545,-1.77774 6.3564,-2.81835 9.5471,-4.15147 6.7139,-2.62928 13.6182,-4.69023 20.5265,-6.70084 0.7092,-0.008 1.4549,-0.88522 0.5557,-1.26727 -3.7105,-2.10229 -8.0135,-2.47896 -12.17,-2.89274 -4.5979,-0.63307 -9.7971,-0.54825 -13.4651,-3.85109 -2.2705,-2.13813 -2.9836,-5.52829 -5.4461,-7.58415 -2.9914,-2.88783 -6.9443,-4.81761 -11.1471,-4.9001 -1.3314,-0.09 -2.6668,-0.10672 -4.0009,-0.0953 z"
         id="path6655-1-2" />
      <path
         style="display:inline;fill:#8e7467;fill-opacity:1;stroke:none;stroke-width:0;stroke-opacity:0.0714285"
         d="m 1484.2297,252.95361 c -7.5988,-0.1215 -15.6546,2.72726 -20.2483,9.03649 -1.3612,1.7056 -2.1219,3.7694 -2.7812,5.80823 -0.9699,0.0412 -1.7567,-1.00837 -2.5841,-1.4727 -6.4597,-4.66466 -14.6316,-6.02937 -22.4424,-5.83176 -15.388,0.37785 -30.721,2.13652 -45.91,4.57681 -39.8493,6.58441 -78.7423,19.16684 -114.7504,37.48619 -0.7803,0.20453 -0.4669,1.10776 0.2281,1.1667 30.3645,13.07627 63.2424,20.25083 96.2772,21.27075 12.1384,0.16465 24.3048,0.0329 36.3802,-1.33752 14.4374,-1.42981 28.7212,-4.26489 42.7157,-8.01312 0.757,-0.31562 1.6941,-0.17496 2.3643,-0.53522 0.8467,-0.34534 2.0477,-0.22589 3.0012,-0.53626 6.9078,-1.24387 13.3208,-4.44821 18.8159,-8.76224 8.6518,-6.58004 16.1816,-14.49176 24.5337,-21.41339 2.9545,-1.77774 6.3564,-2.81835 9.5471,-4.15147 6.7139,-2.62928 13.6182,-4.69023 20.5265,-6.70084 0.7092,-0.008 1.4549,-0.88522 0.5557,-1.26727 -3.7105,-2.10229 -8.0135,-2.47896 -12.17,-2.89274 -4.5979,-0.63307 -9.7971,-0.54825 -13.4651,-3.85109 -2.2705,-2.13813 -2.9836,-5.52829 -5.4461,-7.58415 -2.9914,-2.88783 -6.9443,-4.81761 -11.1471,-4.9001 -1.3314,-0.09 -2.6668,-0.10672 -4.0009,-0.0953 z"
         id="path6655-1-8" />
    </g>
    <g
       inkscape:groupmode="layer"
       id="layer3"
       inkscape:label="Draw2"
       style="display:inline">
      <g
         id="g18652"
         transform="translate(206.88843)">
        <path
           style="display:inline;opacity:1;fill:#8e7467;fill-opacity:1;stroke:none;stroke-width:0;stroke-opacity:0.0714285"
           d="m 1620.6445,247.82288 c -7.5989,-0.1215 -15.6546,2.72726 -20.2483,9.03649 -1.3612,1.7056 -2.1219,3.7694 -2.7812,5.80823 -0.9699,0.0412 -1.7568,-1.00837 -2.5841,-1.4727 -6.4598,-4.66466 -14.6317,-6.02937 -22.4424,-5.83176 -15.3881,0.37785 -30.721,2.13652 -45.91,4.57681 -39.8493,6.58441 -76.258,25.38559 -112.266,43.70494 -0.6241,0.32953 -0.6701,0.85776 -0.01,1.19795 35.4895,8.95127 60.9924,14.00083 94.0272,15.02075 12.1385,0.16465 24.3048,0.0329 36.3802,-1.33752 14.4374,-1.42981 28.7212,-4.26489 42.7157,-8.01312 0.757,-0.31562 1.6941,-0.17496 2.3643,-0.53522 0.8467,-0.34534 2.0476,-0.22589 3.0012,-0.53626 6.9078,-1.24387 13.3208,-4.44821 18.8159,-8.76224 8.6518,-6.58004 16.1816,-14.49176 24.5337,-21.41339 2.9545,-1.77774 6.3564,-2.81835 9.5471,-4.15147 6.7139,-2.62928 13.6182,-4.69023 20.5265,-6.70084 0.7092,-0.008 1.4549,-0.88522 0.5557,-1.26727 -3.7105,-2.10229 -8.0135,-2.47896 -12.17,-2.89274 -4.5979,-0.63307 -9.7971,-0.54825 -13.4651,-3.85109 -2.2705,-2.13813 -2.9836,-5.52829 -5.4461,-7.58415 -2.9914,-2.88783 -6.9443,-4.81761 -11.1471,-4.9001 -1.3315,-0.09 -2.6668,-0.10672 -4.0009,-0.0953 z"
           id="path6655-3"
           sodipodi:nodetypes="ccccccccccccccccccccccc" />
        <path
           style="opacity:1;fill:#8e7467;fill-opacity:1;stroke:none;stroke-width:0;stroke-opacity:0.0714285"
           d="m 1570.0238,278.82898 c -14.7887,0.20567 -29.0931,8.98017 -35.9339,22.09808 -2.8744,5.55858 -5.059,11.72963 -4.7275,18.07347 -0.2025,2.40566 0.3389,4.82237 1.7122,6.82769 4.0249,6.00757 10.8489,9.20284 17.2075,12.13555 12.2037,5.24229 25.3785,8.37347 36.6116,15.66635 15.6856,9.74727 28.1195,23.70688 40.3709,37.32115 12.4594,13.90058 25.0128,28.29239 41.2605,37.89799 9.4195,5.57422 20.1339,9.09417 31.0926,9.6317 3.8953,-0.0192 7.8635,0.15803 11.7033,-0.55452 0.7164,-0.71079 -0.2558,-1.87047 -0.3184,-2.72217 -3.2872,-10.84614 -7.8564,-21.27542 -13.4659,-31.11858 -5.5394,-9.94426 -11.6205,-19.65707 -15.551,-30.38996 -4.1006,-10.64037 -7.7523,-21.558 -13.6283,-31.40312 -4.5761,-7.7614 -9.9071,-15.21507 -16.6169,-21.28104 -5.1241,-4.67679 -11.7945,-6.98749 -18.2829,-9.05923 -7.2227,-2.41744 -14.746,-4.65987 -20.6726,-9.686 -4.4209,-3.51681 -7.0821,-8.67196 -11.3487,-12.34872 -7.8511,-7.40912 -18.6491,-11.35472 -29.4125,-11.08864 z"
           id="path7877" />
      </g>
    </g>
    <g
       inkscape:groupmode="layer"
       id="layer4"
       inkscape:label="Draw3"
       style="display:inline">
      <g
         id="g18656"
         transform="translate(214.44776)">
        <path
           style="display:inline;fill:#8e7467;fill-opacity:1;stroke:none;stroke-width:0;stroke-opacity:0.0714285"
           d="m 1962.7708,234.70662 c -7.5988,-0.1215 -15.6546,2.72726 -20.2483,9.03649 -1.3612,1.7056 -2.1219,3.7694 -2.7812,5.80823 -0.9699,0.0412 -1.7567,-1.00837 -2.5841,-1.4727 -6.4597,-4.66466 -14.6317,-6.02937 -22.4424,-5.83176 -15.388,0.37785 -30.721,2.13652 -45.91,4.57681 -39.8493,6.58441 -79.4471,33.39825 -115.4552,51.7176 -0.7803,0.20453 -0.7922,1.05355 -0.097,1.11249 92.7477,-0.62378 64.2725,6.07363 97.3073,7.09355 12.1385,0.16465 24.3048,0.0329 36.3802,-1.33752 14.4374,-1.42981 28.7212,-4.26489 42.7157,-8.01312 0.757,-0.31562 1.6941,-0.17496 2.3643,-0.53522 0.8467,-0.34534 2.0477,-0.22589 3.0012,-0.53626 6.9078,-1.24387 13.3208,-4.44821 18.8159,-8.76224 8.6518,-6.58004 16.1816,-14.49176 24.5337,-21.41339 2.9545,-1.77774 6.3564,-2.81835 9.5471,-4.15147 6.7139,-2.62928 13.6182,-4.69023 20.5265,-6.70084 0.7092,-0.008 1.4549,-0.88522 0.5557,-1.26727 -3.7105,-2.10229 -8.0135,-2.47896 -12.17,-2.89274 -4.5979,-0.63307 -9.7971,-0.54825 -13.4651,-3.85109 -2.2705,-2.13813 -2.9836,-5.52829 -5.4461,-7.58415 -2.9914,-2.88783 -6.9443,-4.81761 -11.1471,-4.9001 -1.3314,-0.09 -2.6668,-0.10672 -4.0009,-0.0953 z"
           id="path6655-7"
           sodipodi:nodetypes="ccccccccccccccccccccccc" />
        <path
           style="fill:#8e7467;fill-opacity:1;stroke:none;stroke-width:1px;stroke-linecap:butt;stroke-linejoin:miter;stroke-opacity:1"
           d="m 2087,473.03 c -6.9831,-0.7641 -13.9164,-1.9833 -20.7412,-3.64731 -23.7312,-5.78605 -46.025,-16.96865 -65.4775,-31.74199 -24.4384,-18.55996 -44.1961,-42.44344 -65.6307,-64.40403 -11.6607,-11.94687 -23.9257,-23.41586 -37.7224,-32.81538 -12.0491,-8.20891 -25.2747,-14.85103 -36.0356,-24.68821 -1.9396,-1.77313 -3.801,-3.6556 -5.299,-5.81479 -1.498,-2.15919 -2.6269,-4.61545 -2.9815,-7.21936 -0.399,-2.92991 0.2003,-5.93843 1.3674,-8.6553 1.1672,-2.71687 2.8835,-5.16561 4.7663,-7.44571 9.6339,-11.66703 24.2028,-19.24036 39.3167,-19.94854 15.1139,-0.70818 30.5067,5.60585 40.4216,17.03503 2.6395,3.04257 4.9054,6.42098 7.8205,9.20057 3.4972,3.33458 7.7932,5.68171 11.9608,8.12718 8.7794,5.15157 17.2126,10.90232 26.2216,15.64098 6.3959,3.36419 13.0963,6.2274 19.013,10.37686 4.9555,3.4754 9.3664,7.92349 11.9623,13.39129 2.0481,4.31379 2.8954,9.08153 4.2936,13.64752 3.856,12.59225 11.8132,23.43508 18.7078,34.6555 9.125,14.85022 16.5337,30.67634 23.9215,46.46291 3.0925,6.60818 6.1927,13.23083 9.9673,19.47455 4.0067,6.62769 8.7624,12.80219 14.1475,18.36823"
           id="path9600"
           inkscape:path-effect="#path-effect9602"
           inkscape:original-d="m 2087,473.03 c -6.9127,-1.21477 -13.8265,-2.43054 -20.7412,-3.64731 -6.9148,-1.21677 -43.6507,-21.16033 -65.4775,-31.74199 -21.8268,-10.58166 -43.7528,-42.93502 -65.6307,-64.40403 -21.878,-21.469 -25.1473,-21.87592 -37.7224,-32.81538 -12.5751,-10.93946 -24.0227,-16.45781 -36.0356,-24.68821 -12.0128,-8.23041 -5.5193,-8.68843 -8.2805,-13.03415 -2.7612,-4.34572 4.0902,-10.733 6.1337,-16.10101 2.0436,-5.368 53.1599,-1.94134 79.7383,-2.91351 26.5785,-0.97217 5.2147,6.13471 7.8205,9.20057 2.6059,3.06586 7.9749,5.41912 11.9608,8.12718 3.9859,2.70806 17.4821,10.42832 26.2216,15.64098 8.7396,5.21266 12.6763,6.91891 19.013,10.37686 6.3367,3.45795 7.9759,8.92853 11.9623,13.39129 3.9864,4.46276 2.8634,9.09935 4.2936,13.64752 1.4302,4.54817 12.4729,23.10467 18.7078,34.6555 6.235,11.55083 15.9487,30.97627 23.9215,46.46291 7.9729,15.48663 6.6459,12.98403 9.9673,19.47455 3.3214,6.49051 10.366,13.36003 14.1475,18.36823"
           sodipodi:nodetypes="csssssssssssssssssc" />
      </g>
    </g>
    <g
       inkscape:groupmode="layer"
       id="layer5"
       inkscape:label="Draw4"
       style="display:inline">
      <g
         id="g18660"
         transform="translate(212.38623)">
        <path
           style="display:inline;fill:#8e7467;fill-opacity:1;stroke:none;stroke-width:0;stroke-opacity:0.0714285"
           d="m 2343.852,236.1046 c -7.5988,-0.1215 -15.6546,2.72726 -20.2483,9.03649 -1.3612,1.7056 -2.1219,3.7694 -2.7812,5.80823 -0.9699,0.0412 -1.7567,-1.00837 -2.5841,-1.4727 -6.4597,-4.66466 -14.6317,-6.02937 -22.4424,-5.83176 -15.3881,0.37785 -30.721,2.13652 -45.91,4.57681 -39.8493,6.58441 -97.2424,30.66684 -111.6254,58.36119 -0.1553,0.82953 0.2518,1.29526 0.9467,1.3542 51.4896,-7.29873 59.3987,-0.81167 92.4335,0.20825 12.1385,0.16465 24.3048,0.0329 36.3802,-1.33752 14.4374,-1.42981 28.7213,-4.26489 42.7158,-8.01312 0.757,-0.31562 1.6941,-0.17496 2.3643,-0.53522 0.8467,-0.34534 2.0477,-0.22589 3.0012,-0.53626 6.9078,-1.24387 13.3208,-4.44821 18.8159,-8.76224 8.6518,-6.58004 16.1816,-14.49176 24.5337,-21.41339 2.9545,-1.77774 6.3564,-2.81835 9.5471,-4.15147 6.7139,-2.62928 13.6182,-4.69023 20.5265,-6.70084 0.7092,-0.008 1.4549,-0.88522 0.5557,-1.26727 -3.7105,-2.10229 -8.0135,-2.47896 -12.17,-2.89274 -4.5979,-0.63307 -9.7971,-0.54825 -13.4651,-3.85109 -2.2705,-2.13813 -2.9836,-5.52829 -5.4461,-7.58415 -2.9914,-2.88783 -6.9443,-4.81761 -11.1471,-4.9001 -1.3314,-0.09 -2.6668,-0.10672 -4.0009,-0.0953 z"
           id="path6655-7-7"
           sodipodi:nodetypes="ccccccccccccccccccccccc" />
        <path
           style="fill:#8e7467;fill-opacity:1;stroke:none;stroke-width:1px;stroke-linecap:butt;stroke-linejoin:miter;stroke-opacity:1"
           d="m 2437,453.1 c -7.1478,-7.19229 -13.2491,-15.42303 -18.0525,-24.35319 -2.6849,-4.9915 -4.9698,-10.21086 -6.5938,-15.64098 -0.9557,-3.1957 -1.6805,-6.45623 -2.6068,-9.6606 -3.881,-13.42636 -11.1884,-25.54981 -17.4811,-38.02904 -5.5427,-10.99181 -10.3658,-22.40614 -17.1744,-32.66205 -8.4752,-12.76631 -20.2393,-23.68664 -34.5021,-29.2885 -3.2789,-1.28781 -6.7228,-2.31812 -9.5893,-4.36564 -0.8366,-0.59757 -1.619,-1.28097 -2.2563,-2.08778 -0.6372,-0.8068 -1.1266,-1.74184 -1.3419,-2.74715 -0.226,-1.05529 -0.1462,-2.15299 -0.3067,-3.2202 -0.1888,-1.25549 -0.7122,-2.45135 -1.4538,-3.48185 -0.7416,-1.0305 -1.6976,-1.8984 -2.7595,-2.5942 -2.124,-1.39161 -4.631,-2.08459 -7.1341,-2.51116 -6.0598,-1.03269 -12.2616,-0.61472 -18.4012,-0.92005 -13.5137,-0.67204 -26.8821,-4.85433 -40.3492,-3.54704 -6.7336,0.65365 -13.4634,2.76596 -18.765,6.96847 -2.6508,2.10125 -4.9154,4.70974 -6.5035,7.69636 -1.5881,2.98662 -2.4884,6.35431 -2.4665,9.73684 0.022,3.36696 0.9427,6.6696 2.1468,9.81395 3.4092,8.9025 9.1875,16.88825 16.5909,22.89381 9.8732,8.00897 22.1947,12.30169 33,19 12.6809,7.861 23.0884,18.93103 32.1409,30.79074 6.7664,8.86465 12.8886,18.26939 20.5479,26.37498 17.1237,18.12135 40.9051,28.62162 65.0174,34.96219 12.5554,3.30156 25.3739,5.60193 38.2938,6.87209"
           id="path9825"
           inkscape:path-effect="#path-effect9827"
           inkscape:original-d="m 2437,453.1 c -6.0165,-8.11673 -15.8556,-19.14053 -18.0525,-24.35319 -2.1969,-5.21266 -5.7258,-12.42177 -6.5938,-15.64098 -0.8679,-3.2192 3.2192,3.01475 -2.6068,-9.6606 -5.826,-12.67535 -11.7573,-27.1427 -17.4811,-38.02904 -5.7238,-10.88635 -5.6747,-22.90021 -17.1744,-32.66205 -11.4997,-9.76183 -31.3067,-27.83428 -34.5021,-29.2885 -3.1955,-1.45421 -8.3909,-2.755 -9.5893,-4.36564 -1.1984,-1.61064 -3.497,-3.76253 -3.5982,-4.83493 -0.1013,-1.0724 3.4747,-0.3588 -0.3067,-3.2202 -3.7815,-2.8614 -7.5639,-5.72381 -11.3474,-8.58721 -3.7835,-2.8634 -12.2664,-0.61237 -18.4012,-0.92005 -6.1347,-0.30769 -45.3885,13.90409 -68.0842,20.85463 -22.6958,6.95055 1.4322,6.54364 2.1468,9.81395 0.7146,3.27032 11.0616,15.26354 16.5909,22.89381 5.5293,7.63027 22.001,12.66767 33,19 10.999,6.33233 21.4282,20.52816 32.1409,30.79074 10.7126,10.26258 13.6996,17.58432 20.5479,26.37498 6.8483,8.79066 43.346,23.30912 65.0174,34.96219 21.6715,11.65306 25.5302,4.58239 38.2938,6.87209" />
      </g>
    </g>
    <g
       inkscape:groupmode="layer"
       id="layer6"
       inkscape:label="Draw5"
       style="display:inline">
      <g
         id="g18664"
         transform="translate(206.26441)">
        <path
           style="display:inline;fill:#8e7467;fill-opacity:1;stroke:none;stroke-width:0;stroke-opacity:0.0714285"
           d="m 2731.0295,240.15527 c -7.5988,-0.1215 -15.6546,2.72726 -20.2483,9.0365 -1.3612,1.7056 -2.1219,3.76939 -2.7812,5.80823 -0.9699,0.0412 -1.7567,-1.00837 -2.5841,-1.4727 -6.4597,-4.66466 -14.6317,-6.02937 -22.4424,-5.83176 -15.3881,0.37785 -30.721,2.13651 -45.91,4.57681 -39.8493,6.5844 -86.6486,34.76058 -95.9067,70.95494 0.063,1.11078 0.4394,1.26401 1.1343,1.32295 41.6146,-15.04873 43.4924,-13.37418 76.5272,-12.35425 12.1385,0.16465 24.3048,0.0329 36.3802,-1.33752 14.4374,-1.42981 28.7213,-4.26489 42.7158,-8.01312 0.757,-0.31563 1.6941,-0.17496 2.3643,-0.53522 0.8467,-0.34534 2.0477,-0.22589 3.0012,-0.53626 6.9078,-1.24388 13.3208,-4.44822 18.8159,-8.76225 8.6518,-6.58003 16.1816,-14.49176 24.5337,-21.41338 2.9545,-1.77774 6.3564,-2.81835 9.5471,-4.15147 6.7139,-2.62928 13.6182,-4.69023 20.5265,-6.70085 0.7092,-0.008 1.4549,-0.88522 0.5557,-1.26727 -3.7105,-2.10229 -8.0135,-2.47896 -12.17,-2.89274 -4.5979,-0.63307 -9.7971,-0.54825 -13.4651,-3.85109 -2.2705,-2.13813 -2.9836,-5.52829 -5.4461,-7.58415 -2.9914,-2.88783 -6.9443,-4.81761 -11.1471,-4.9001 -1.3314,-0.09 -2.6668,-0.10672 -4.0009,-0.0953 z"
           id="path6655-7-7-0"
           sodipodi:nodetypes="ccccccccccccccccccccccc" />
        <path
           style="fill:#8e7467;fill-opacity:1;stroke:none;stroke-width:1px;stroke-linecap:butt;stroke-linejoin:miter;stroke-opacity:1"
           d="m 2771,409 c 0.4729,-2.63511 0.5994,-5.3322 0.375,-8 -0.7588,-9.02285 -5.4078,-17.17275 -9.5,-25.25 -4.9533,-9.77704 -9.2479,-19.95423 -11.75,-30.625 -1.8977,-8.09289 -2.7495,-16.40195 -4.625,-24.5 -2.0348,-8.78556 -5.2723,-17.28426 -9.5,-25.25 -0.8522,-1.60573 -1.7496,-3.19779 -2.876,-4.62464 -1.1264,-1.42684 -2.4962,-2.69099 -4.124,-3.50036 -2.442,-1.21424 -5.2739,-1.32758 -8,-1.25 -11.8249,0.33651 -23.3132,3.79159 -35,5.625 -16.3833,2.5702 -33.0837,1.94236 -49.6257,3.11717 -16.542,1.17481 -33.4914,4.37329 -47.2493,13.63283 -1.416,0.953 -2.7975,1.97123 -4.0049,3.17765 -1.2073,1.20642 -2.2406,2.61086 -2.8701,4.19735 -1.0146,2.55718 -0.902,5.53692 0.2937,8.01458 1.1958,2.47766 3.4545,4.4177 6.0813,5.23542 1.7267,0.53753 3.5819,0.6025 5.3684,0.32184 1.7866,-0.28066 3.5085,-0.89931 5.1316,-1.69684 5.4442,-2.67511 9.6885,-7.26504 14.7703,-10.57735 2.5409,-1.65615 5.3341,-3.00375 8.3239,-3.5138 2.9898,-0.51005 6.199,-0.12548 8.7808,1.46615 1.8906,1.16551 3.3514,2.89968 4.75,4.625 9.0808,11.20226 17.0954,23.42133 27.875,33 16.7388,14.87387 38.7765,22.19273 60.5,27.625 6.8865,1.72206 13.8315,3.29948 20.4862,5.77026 6.6546,2.47079 13.0655,5.88985 18.1388,10.85474 3.5169,3.44177 6.3396,7.59015 8.25,12.125"
           id="path11188"
           inkscape:path-effect="#path-effect11190"
           inkscape:original-d="m 2771,409 c 2.749,4.04067 3.5407,0.41567 0.375,-8 -3.1657,-8.41567 -5.5843,-15.04267 -9.5,-25.25 -3.9157,-10.20733 -10.2093,-22.45933 -11.75,-30.625 -1.5407,-8.16567 -1.4593,-16.08433 -4.625,-24.5 -3.1657,-8.41567 -7.1677,-22.54267 -9.5,-25.25 -2.3323,-2.70733 -4.3343,-7.70933 -7,-8.125 -2.6657,-0.41567 -5.3323,-0.83233 -8,-1.25 -2.6677,-0.41767 -23.3323,3.751 -35,5.625 -11.6677,1.874 -64.5823,11.16767 -96.875,16.75 -32.2927,5.58233 -4.5823,4.91767 -6.875,7.375 -2.2927,2.45733 4.251,8.83433 6.375,13.25 2.124,4.41567 7.001,-0.91567 10.5,-1.375 3.499,-0.45933 21.251,-8.41567 31.875,-12.625 10.624,-4.20933 3.1677,3.08433 4.75,4.625 1.5823,1.54067 18.5843,22.001 27.875,33 9.2907,10.999 40.3343,18.41767 60.5,27.625 20.1657,9.20733 25.751,11.08433 38.625,16.625 12.874,5.54067 6.0843,9.126 8.25,12.125"
           sodipodi:nodetypes="csssssssssssssssssc" />
      </g>
    </g>
    <g
       inkscape:groupmode="layer"
       id="layer8"
       inkscape:label="Draw6">
      <g
         id="g18693"
         transform="translate(205.75586)">
        <path
           style="fill:#8e7467;fill-opacity:1;stroke:none;stroke-width:1px;stroke-linecap:butt;stroke-linejoin:miter;stroke-opacity:1"
           d="m 3086.4255,295.41789 c 1.4443,2.4802 2.7229,5.05685 3.8245,7.70711 1.5316,3.68467 2.7357,7.68171 2.125,11.625 -0.145,0.93628 -0.3906,1.85391 -0.567,2.78477 -0.1765,0.93086 -0.2836,1.88754 -0.148,2.82523 0.1385,0.95822 0.5265,1.86531 1.0049,2.70705 0.4784,0.84174 1.0483,1.62719 1.5851,2.43295 5.9564,8.94103 7.6237,20.60854 4.41,30.86"
           id="path12110"
           inkscape:path-effect="#path-effect12112"
           inkscape:original-d="m 3086.4255,295.41789 c 1.0843,2.33433 2.7422,5.37478 3.8245,7.70711 1.0823,2.33233 1.4177,7.751 2.125,11.625 0.7073,3.874 -0.4757,3.741 -0.715,5.61 -0.2393,1.869 1.7277,3.42767 2.59,5.14 0.8623,1.71233 2.941,20.57433 4.41,30.86"
           sodipodi:nodetypes="cssssc" />
        <g
           id="g18669">
          <path
             style="display:inline;opacity:1;fill:#8e7467;fill-opacity:1;stroke:none;stroke-width:0;stroke-opacity:0.0714285"
             d="m 3095.0601,248.91703 c -7.5988,-0.1215 -15.6546,2.72726 -20.2483,9.0365 -1.3612,1.7056 -2.1219,3.76939 -2.7812,5.80823 -0.9699,0.0412 -1.7567,-1.00837 -2.5841,-1.4727 -6.4597,-4.66466 -14.6317,-6.02937 -22.4424,-5.83176 -15.3881,0.37785 -30.721,2.13651 -45.91,4.57681 -39.8493,6.5844 -55.383,15.55746 -91.4536,44.25182 -0.2495,0.34515 -0.1543,0.48276 0.1968,0.58857 53.0521,11.01377 39.9768,14.06332 73.0116,15.08325 12.1385,0.16465 24.3048,0.0329 36.3802,-1.33752 14.4374,-1.42981 28.7213,-4.26489 42.7158,-8.01312 0.757,-0.31563 1.6941,-0.17496 2.3643,-0.53522 0.8467,-0.34534 2.0477,-0.22589 3.0012,-0.53626 6.9078,-1.24388 16.027,-6.15618 21.5221,-10.47021 -9.2911,-25.14158 10.2934,-15.25867 18.9107,-17.5841 2.9545,-1.77774 9.2732,-4.93967 12.4639,-6.27279 6.7139,-2.62928 13.6182,-4.69023 20.5265,-6.70085 0.7092,-0.008 1.4549,-0.88522 0.5557,-1.26727 -3.7105,-2.10229 -8.0135,-2.47896 -12.17,-2.89274 -4.5979,-0.63307 -9.7971,-0.54825 -13.4651,-3.85109 -2.2705,-2.13813 -2.9836,-5.52829 -5.4461,-7.58415 -2.9914,-2.88783 -6.9443,-4.81761 -11.1471,-4.9001 -1.3314,-0.09 -2.6668,-0.10672 -4.0009,-0.0953 z"
             id="path6655-7-7-0-8"
             sodipodi:nodetypes="ccccccccccccccccccccccc" />
          <path
             style="fill:#8e7467;fill-opacity:1;stroke:none;stroke-width:1px;stroke-linecap:butt;stroke-linejoin:miter;stroke-opacity:1"
             d="m 3087,296.125 c -2.6405,-2.94133 -5.9601,-5.26932 -9.625,-6.75 -4.9806,-2.01225 -10.536,-2.4363 -15.8382,-1.57446 -5.3022,0.86184 -10.3577,2.97559 -14.9118,5.82446 -4.6008,2.87806 -8.7274,6.51835 -12.125,10.75 -2.2986,2.86295 -4.3092,6.11292 -4.8471,9.74486 -0.2689,1.81597 -0.1536,3.70316 0.46,5.43336 0.6135,1.7302 1.7402,3.29512 3.2621,4.32178 1.6382,1.10514 3.6239,1.5409 5.5572,1.95006 1.9333,0.40916 3.9195,0.835 5.5678,1.92494 1.156,0.76437 2.0896,1.82196 2.9071,2.94093 0.8176,1.11898 1.5325,2.3099 2.3429,3.43407 3.5976,4.99043 8.9578,8.48124 14.625,10.875 7.303,3.0847 15.1864,4.49975 22.75,6.875 3.9388,1.23694 7.7952,2.73635 11.535,4.485"
             id="path12122"
             inkscape:path-effect="#path-effect12124"
             inkscape:original-d="m 3087,296.125 c -3.2073,-2.249 -6.4157,-4.499 -9.625,-6.75 -3.2093,-2.251 -20.499,2.83433 -30.75,4.25 -10.251,1.41567 -8.0823,7.16767 -12.125,10.75 -4.0427,3.58233 -0.749,13.001 -1.125,19.5 -0.376,6.499 7.4177,2.58433 11.125,3.875 3.7073,1.29067 3.501,4.251 5.25,6.375 1.749,2.124 9.751,7.251 14.625,10.875 4.874,3.624 15.1677,4.58433 22.75,6.875 7.5823,2.29067 7.691,2.991 11.535,4.485" />
          <path
             style="fill:#8e7467;fill-opacity:1;stroke:none;stroke-width:1px;stroke-linecap:butt;stroke-linejoin:miter;stroke-opacity:1"
             d="m 3094.66,217.36 c -0.8141,4.86893 -3.7594,9.34266 -7.91,12.015 -1.03,0.66317 -2.1316,1.22199 -3.09,1.985 -1.9029,1.51497 -3.1337,3.77855 -3.6425,6.15709 -0.5088,2.37853 -0.3325,4.8671 0.2325,7.23291 0.7167,3.00073 2.0396,5.81817 3,8.75 1.0957,3.34482 1.7122,6.98936 0.75,10.375 -0.6354,2.23597 -1.9415,4.254 -3.6062,5.87642 -1.6647,1.62242 -3.6794,2.86042 -5.8162,3.77547 -4.2736,1.83011 -8.9672,2.37533 -13.5776,2.97311 -14.2034,1.84159 -28.369,4.36907 -42.6888,4.63867 -14.3197,0.2696 -29.0161,-1.85361 -41.5612,-8.76367 -2.3373,-1.28745 -4.6067,-2.74253 -7.125,-3.625 -1.6416,-0.57527 -3.3919,-0.89876 -5.125,-0.75 -0.6575,0.0564 -1.3295,0.17914 -1.9688,0.0156 -0.435,-0.11127 -0.8288,-0.35086 -1.1718,-0.64062 -0.1502,-0.12686 -0.2925,-0.26457 -0.4092,-0.42274 -0.1168,-0.15816 -0.2075,-0.33784 -0.2471,-0.53039 -0.061,-0.29428 0,-0.60388 0.1264,-0.87733 0.1244,-0.27345 0.3079,-0.51551 0.4986,-0.74767 0.7394,-0.90016 1.6065,-1.68555 2.4688,-2.46875 6.78,-6.15807 13.4833,-12.41058 20.5781,-18.20312 8.4306,-6.8831 17.4598,-13.13711 27.375,-17.625 12.712,-5.75379 26.5514,-8.4702 40.25,-11.125 9.7745,-1.89431 19.7879,-3.7864 29.625,-2.25 4.533,0.70798 8.9515,2.14354 13.035,4.23502"
             id="path13906"
             inkscape:path-effect="#path-effect13908"
             inkscape:original-d="m 3094.66,217.36 c 4.344,1.41067 -6.881,11.35233 -7.91,12.015 -1.029,0.66267 -1.9543,-2.47933 -3.09,1.985 -1.1357,4.46433 -4.411,10.47233 -3.41,13.39 1.001,2.91767 2.001,5.83433 3,8.75 0.999,2.91567 0.501,6.91767 0.75,10.375 0.249,3.45733 -15.3323,8.41767 -23,12.625 -7.6677,4.20733 -56.1657,-2.749 -84.25,-4.125 -28.0843,-1.376 -4.749,-2.41567 -7.125,-3.625 -2.376,-1.20933 -3.4157,-0.499 -5.125,-0.75 -1.7093,-0.251 -1.3115,0.0114 -1.9688,0.0156 -0.6572,0.004 -0.7802,-0.42608 -1.1718,-0.64062 -0.3917,-0.21454 -0.4365,-0.63442 -0.6563,-0.95313 -0.2197,-0.3187 0.4177,-1.08233 0.625,-1.625 0.2074,-0.54266 1.6469,-1.64483 2.4688,-2.46875 0.8219,-0.82391 13.7197,-12.13441 20.5781,-18.20312 6.8584,-6.06871 18.251,-11.749 27.375,-17.625 9.124,-5.876 26.8343,-7.41567 40.25,-11.125 13.4157,-3.70933 19.751,-1.499 29.625,-2.25 9.874,-0.751 9.786,3.27769 13.035,4.23502"
             sodipodi:nodetypes="cssssssssssssssssssc" />
        </g>
      </g>
      <rect
         style="opacity:1;fill:#8e7467;fill-opacity:1;stroke:none;stroke-width:0;stroke-opacity:1"
         id="rect19364"
         width="119.50104"
         height="516.18793"
         x="0"
         y="0"
         transform="scale(-1,1)" />
      <rect
         style="fill:#8e7467;fill-opacity:1;stroke:none;stroke-width:0;stroke-opacity:1"
         id="rect19364-8"
         width="119.50104"
         height="516.18793"
         x="-5119.501"
         y="1.1751582e-05"
         transform="scale(-1,1)" />
    </g>
    <g
       inkscape:groupmode="layer"
       id="layer9"
       inkscape:label="Draw7">
      <g
         id="g18673"
         transform="translate(197.0686)">
        <path
           style="display:inline;fill:#8e7467;fill-opacity:1;stroke:none;stroke-width:0;stroke-opacity:0.0714285"
           d="m 3464.6136,258.46797 c -7.5988,-0.1215 -15.6546,2.72726 -20.2483,9.0365 -1.3612,1.7056 -2.1219,3.76939 -2.7812,5.80823 -0.9699,0.0412 -1.7567,-1.00837 -2.5841,-1.4727 -6.4597,-4.66466 -14.6317,-6.02937 -22.4424,-5.83176 -15.3881,0.37785 -30.721,2.13651 -45.91,4.57681 -39.8493,6.5844 -37.0508,11.84375 -81.8411,37.16635 0.063,1.11078 -0.4563,0.58114 0.2386,0.64008 40.7307,17.3898 30.3225,21.09728 63.3573,22.11721 12.1385,0.16465 24.3048,0.0329 36.3802,-1.33752 14.4374,-1.42981 28.7213,-4.26489 42.7158,-8.01312 0.757,-0.31563 1.6941,-0.17496 2.3643,-0.53522 0.8467,-0.34534 2.0477,-0.22589 3.0012,-0.53626 6.9078,-1.24388 13.3208,-4.44822 18.8159,-8.76225 8.6518,-6.58003 16.1816,-14.49176 24.5337,-21.41338 2.9545,-1.77774 6.3564,-2.81835 9.5471,-4.15147 6.7139,-2.62928 13.6182,-4.69023 20.5265,-6.70085 0.7092,-0.008 1.4549,-0.88522 0.5557,-1.26727 -3.7105,-2.10229 -8.0135,-2.47896 -12.17,-2.89274 -4.5979,-0.63307 -9.7971,-0.54825 -13.4651,-3.85109 -2.2705,-2.13813 -2.9836,-5.52829 -5.4461,-7.58415 -2.9914,-2.88783 -6.9443,-4.81761 -11.1471,-4.9001 -1.3314,-0.09 -2.6668,-0.10672 -4.0009,-0.0953 z"
           id="path6655-7-7-0-3"
           sodipodi:nodetypes="ccccccccccccccccccccccc" />
        <path
           style="fill:#8e7467;fill-opacity:1;stroke:none;stroke-width:1px;stroke-linecap:butt;stroke-linejoin:miter;stroke-opacity:1"
           d="m 3420,174.84 c 0.093,4.11992 -0.6288,8.25672 -2.1125,12.10135 -3.2475,8.41523 -9.8646,14.98189 -15.7331,21.83193 -0.8357,0.97553 -1.6625,1.96586 -2.3376,3.05873 -0.6751,1.09287 -1.1977,2.29808 -1.3748,3.57039 -0.1984,1.42533 0.047,2.89524 0.5995,4.22403 0.5525,1.32879 1.404,2.5209 2.4057,3.55415 1.683,1.73604 3.7715,3.02448 5.5528,4.65942 2.7472,2.52146 4.6804,5.7828 6.6448,8.95238 2.2958,3.70429 4.7004,7.37409 6.364,11.4021 1.5211,3.68293 2.419,7.65521 4.5078,11.04854 2.0318,3.30083 5.0662,5.84811 8.1317,8.22012 2.0353,1.57485 4.115,3.1042 6.3517,4.37686 0.8618,0.49037 1.7463,0.94226 2.5841,1.4727 0.8599,0.54444 1.6776,1.17993 2.2956,1.98853 0.618,0.80859 1.0259,1.80649 0.9953,2.82377 -0.024,0.79945 -0.3185,1.57942 -0.7779,2.23413 -0.4594,0.65472 -1.0786,1.18815 -1.7624,1.60302 -1.3676,0.82974 -2.962,1.18481 -4.5222,1.53785 -10.8666,2.45893 -21.6814,5.43754 -32.789,6.30404 -11.1075,0.8665 -22.7384,-0.5411 -32.2735,-6.30404 -2.7089,-1.63722 -5.2059,-3.59778 -7.6875,-5.5625 -3.2666,-2.58626 -6.5465,-5.21501 -9.1875,-8.4375 -4.7948,-5.85043 -7.2385,-13.58568 -6.625,-21.125 0.4138,-5.08511 2.1416,-9.95492 3.4186,-14.89444 1.277,-4.93951 2.1019,-10.1982 0.7064,-15.10556 -0.9609,-3.37909 -2.9836,-6.45964 -5.75,-8.625 -3.4859,-2.72854 -7.9939,-3.91943 -12.4197,-4.01007 -4.4259,-0.0906 -8.809,0.8473 -13.0803,2.01007 -1.3709,0.3732 -2.7396,0.771 -4.1439,0.98727 -1.4042,0.21626 -2.8563,0.24635 -4.2311,-0.11227 -0.7743,-0.20197 -1.5216,-0.52896 -2.1608,-1.01033 -0.6391,-0.48136 -1.1673,-1.1216 -1.4642,-1.86467 -0.2809,-0.70311 -0.3488,-1.48279 -0.2446,-2.23274 0.1041,-0.74996 0.3762,-1.47108 0.7485,-2.13039 0.7446,-1.31863 1.8689,-2.37562 2.9961,-3.38687 14.1264,-12.67366 31.5825,-21.60257 50.1264,-25.63995 18.5439,-4.03738 38.132,-3.17376 56.2486,2.47995"
           id="path16631"
           inkscape:path-effect="#path-effect16633"
           inkscape:original-d="m 3420,174.84 c 0,-0.001 3.1309,4.82305 -2.1125,12.10135 -5.2434,7.27831 -14.4967,19.62122 -15.7331,21.83193 -1.2365,2.21071 -4.7151,4.0354 -3.7124,6.62912 1.0028,2.59373 1.1533,6.22404 3.0052,7.77818 1.852,1.55414 3.3369,1.67429 5.5528,4.65942 2.2159,2.98513 4.5225,5.15068 6.6448,8.95238 2.1224,3.8017 4.8604,7.71825 6.364,11.4021 1.5036,3.68385 1.7962,8.3075 4.5078,11.04854 2.7116,2.74104 6.0135,6.76017 8.1317,8.22012 2.1183,1.45995 4.2355,2.91891 6.3517,4.37686 2.1162,1.45795 1.7237,0.9828 2.5841,1.4727 0.8604,0.4899 2.1949,3.2092 3.2909,4.8123 1.096,1.6031 -4.7073,3.58433 -7.0625,5.375 -2.3552,1.79067 -43.374,10e-4 -65.0625,0 -21.6885,-10e-4 -5.124,-3.70733 -7.6875,-5.5625 -2.5635,-1.85517 -6.124,-5.624 -9.1875,-8.4375 -3.0635,-2.8135 -4.4157,-14.08233 -6.625,-21.125 -2.2093,-7.04267 2.751,-19.999 4.125,-30 1.374,-10.001 -3.8323,-5.749 -5.75,-8.625 -1.9177,-2.876 -16.999,-1.33233 -25.5,-2 -8.501,-0.66767 -5.5823,0.58433 -8.375,0.875 -2.7927,0.29067 -2.4157,-1.91567 -3.625,-2.875 -1.2093,-0.95933 2.3343,-5.16567 3.5,-7.75 1.1657,-2.58433 104.3285,-27.01787 106.375,-23.16"
           sodipodi:nodetypes="csssssssssssssssssssssssc" />
      </g>
    </g>
    <g
       inkscape:groupmode="layer"
       id="layer10"
       inkscape:label="Draw8">
      <g
         id="g18677"
         transform="translate(194.58984)">
        <path
           style="display:inline;fill:#8e7467;fill-opacity:1;stroke:none;stroke-width:0;stroke-opacity:0.0714285"
           d="m 3832.7708,256.41662 c -7.5988,-0.1215 -15.6546,2.72726 -20.2483,9.0365 -1.3612,1.7056 -2.1219,3.76939 -2.7812,5.80823 -0.9699,0.0412 -1.7567,-1.00837 -2.5841,-1.4727 -6.4597,-4.66466 -14.6317,-6.02937 -22.4424,-5.83176 -15.3881,0.37785 -30.721,2.13651 -45.91,4.57681 -39.8493,6.5844 -37.0508,11.84375 -81.8411,37.16635 0.063,1.11078 -0.4563,0.58114 0.2386,0.64008 40.7307,17.3898 30.3225,21.09728 63.3573,22.11721 12.1385,0.16465 24.3048,0.0329 36.3802,-1.33752 14.4374,-1.42981 28.7213,-4.26489 42.7158,-8.01312 0.757,-0.31563 1.6941,-0.17496 2.3643,-0.53522 0.8467,-0.34534 2.0477,-0.22589 3.0012,-0.53626 6.9078,-1.24388 13.3208,-4.44822 18.8159,-8.76225 8.6518,-6.58003 16.1816,-14.49176 24.5337,-21.41338 2.9545,-1.77774 6.3564,-2.81835 9.5471,-4.15147 6.7139,-2.62928 13.6182,-4.69023 20.5265,-6.70085 0.7092,-0.008 1.4549,-0.88522 0.5557,-1.26727 -3.7105,-2.10229 -8.0135,-2.47896 -12.17,-2.89274 -4.5979,-0.63307 -9.7971,-0.54825 -13.4651,-3.85109 -2.2705,-2.13813 -2.9836,-5.52829 -5.4461,-7.58415 -2.9914,-2.88783 -6.9443,-4.81761 -11.1471,-4.9001 -1.3314,-0.09 -2.6668,-0.10672 -4.0009,-0.0953 z"
           id="path6655-7-7-0-3-6"
           sodipodi:nodetypes="ccccccccccccccccccccccc" />
        <path
           style="fill:#8e7467;fill-opacity:1;stroke:none;stroke-width:1px;stroke-linecap:butt;stroke-linejoin:miter;stroke-opacity:1"
           d="m 3665,148.74 c 2.5137,-3.87049 5.8762,-7.18655 9.7812,-9.64621 3.7096,-2.33657 7.8503,-3.88272 11.9375,-5.46875 2.8802,-1.11766 5.7607,-2.26811 8.4454,-3.79688 0.4218,-0.24016 0.8405,-0.49102 1.2109,-0.80468 0.384,-0.32518 0.7112,-0.71385 1.1016,-1.03125 0.1003,-0.0815 0.2065,-0.15925 0.3281,-0.20313 0.063,-0.0228 0.1294,-0.036 0.1953,-0.0491 7.9245,-1.57046 16.0483,-1.91666 24.125,-1.74 8.9029,0.19473 17.7814,1.01857 26.625,2.0625 7.395,0.87293 14.826,1.9126 21.875,4.3125 2.3287,0.79282 4.6322,1.7453 6.625,3.1875 1.777,1.28603 3.2892,2.96554 4.25,4.9375 1.1822,2.42652 1.4907,5.17914 1.625,7.875 0.4127,8.2857 -0.6653,16.63957 -3.125,24.5625 -1.6919,5.44966 -4.0233,10.67588 -6.375,15.875 -1.9847,4.38781 -3.9932,8.78087 -5.4375,13.375 -2.5364,8.06833 -3.2775,16.74397 -1.75,25.0625 0.9564,5.20809 2.8186,10.30093 5.875,14.625 1.1385,1.61066 2.4386,3.11174 3.4375,4.8125 1.2199,2.07709 1.9599,4.40251 2.5,6.75 0.1697,0.73744 0.3211,1.48096 0.5603,2.19883 0.2393,0.71788 0.5713,1.41495 1.0647,1.98867 0.6801,0.79083 1.6307,1.30552 2.6123,1.65838 0.9815,0.35286 2.0085,0.55966 3.0127,0.84162 2.1678,0.60867 4.2506,1.58244 6,3 1.5187,1.23062 2.7592,2.77002 3.875,4.375 1.0742,1.54515 2.0505,3.17588 2.6828,4.94832 0.6322,1.77244 0.909,3.70113 0.5672,5.55168 -0.4095,2.2172 -1.7029,4.22558 -3.4319,5.67268 -1.729,1.44709 -3.8723,2.35317 -6.0848,2.78708 -4.4251,0.8678 -8.9874,-0.10081 -13.3583,-1.20976 -13.7808,-3.49636 -27.5508,-8.46961 -41.75,-7.75 -2.6212,0.13284 -5.2377,0.46077 -7.861,0.38235 -2.6234,-0.0784 -5.303,-0.59319 -7.514,-2.00735 -1.9969,-1.27726 -3.5027,-3.22578 -4.5391,-5.35766 -1.0365,-2.13189 -1.6313,-4.45086 -2.0859,-6.77734 -1.9422,-9.93964 -1.4206,-20.21252 0,-30.24 2.1096,-14.89125 6.187,-29.90882 3.75,-44.75 -2.0865,-12.70636 -9.1964,-24.63255 -19.75,-32.01 -6.1028,-4.26617 -13.2675,-6.99678 -20.6594,-7.89402 -3.2604,-0.39576 -6.5633,-0.44029 -9.8332,-0.13259"
           id="path17042"
           inkscape:path-effect="#path-effect17044"
           inkscape:original-d="m 3665,148.74 c -3.4479,-0.0363 5.801,-7.82429 9.7812,-9.64621 3.9802,-1.82192 9.1214,-4.20413 11.9375,-5.46875 2.8162,-1.26463 8.0407,-3.52965 8.4454,-3.79688 0.4046,-0.26722 0.8427,-0.46193 1.2109,-0.80468 0.3682,-0.34275 0.9912,-0.96455 1.1016,-1.03125 0.1103,-0.0667 0.2621,-0.18773 0.3281,-0.20313 0.066,-0.0154 -7.8474,0.5299 0.1953,-0.0491 8.0427,-0.579 15.249,-2.4285 24.125,-1.74 8.876,0.6885 19.3323,0.624 26.625,2.0625 7.2927,1.4385 19.6657,3.249 21.875,4.3125 2.2093,1.0635 5.2073,1.54067 6.625,3.1875 1.4177,1.64683 3.7073,2.3115 4.25,4.9375 0.5427,2.626 2.6657,-0.3135 1.625,7.875 -1.0407,8.1885 -1.001,19.26983 -3.125,24.5625 -2.124,5.29267 -4.5635,11.41567 -6.375,15.875 -1.8115,4.45933 -4.8552,5.01983 -5.4375,13.375 -0.5823,8.35517 -3.7093,20.1865 -1.75,25.0625 1.9593,4.876 4.7282,13.01983 5.875,14.625 1.1468,1.60517 2.6032,2.5615 3.4375,4.8125 0.8343,2.251 1.9573,5.35317 2.5,6.75 0.5427,1.39683 -0.251,3.35317 1.625,4.1875 1.876,0.83433 3.624,1.499 5.625,2.5 2.001,1.001 4.7073,1.54067 6,3 1.2927,1.45933 2.5843,2.91767 3.875,4.375 1.2907,1.45733 2.1677,7.001 3.25,10.5 1.0823,3.499 -15.249,4.83433 -22.875,7.25 -7.626,2.41567 -27.8323,-5.16567 -41.75,-7.75 -13.9177,-2.58433 -10.249,-1.08233 -15.375,-1.625 -5.126,-0.54267 -4.4157,-8.089 -6.625,-12.135 -2.2093,-4.046 0,-20.159 0,-30.24 0,-10.081 2.501,-29.83233 3.75,-44.75 1.249,-14.91767 -13.1657,-21.339 -19.75,-32.01 -6.5843,-10.671 -13.7719,-5.26168 -20.6594,-7.89402 -6.8874,-2.63234 -6.5544,-0.0874 -9.8332,-0.13259" />
      </g>
    </g>
    <g
       inkscape:groupmode="layer"
       id="layer11"
       inkscape:label="Draw9">
      <g
         id="g18681"
         transform="translate(192.26611)">
        <path
           style="display:inline;fill:#8e7467;fill-opacity:1;stroke:none;stroke-width:0;stroke-opacity:0.0714285"
           d="m 4216.7708,266.67662 c -7.5988,-0.1215 -15.6546,2.72726 -20.2483,9.0365 -1.3612,1.7056 -2.1219,3.76939 -2.7812,5.80823 -0.9699,0.0412 -1.7567,-1.00837 -2.5841,-1.4727 -6.4597,-4.66466 -14.6317,-6.02937 -22.4424,-5.83176 -15.3881,0.37785 -30.721,2.13651 -45.91,4.57681 -39.8493,6.5844 -69.1579,7.43538 -113.9482,32.75798 0,0 -0.088,0.35355 0.1434,0.44832 40.7307,17.3898 62.5248,25.69741 95.5596,26.71734 12.1385,0.16465 24.3048,0.0329 36.3802,-1.33752 14.4374,-1.42981 28.7213,-4.26489 42.7158,-8.01312 0.757,-0.31563 1.6941,-0.17496 2.3643,-0.53522 0.8467,-0.34534 2.0477,-0.22589 3.0012,-0.53626 6.9078,-1.24388 13.3208,-4.44822 18.8159,-8.76225 8.6518,-6.58003 16.1816,-14.49176 24.5337,-21.41338 2.9545,-1.77774 6.3564,-2.81835 9.5471,-4.15147 6.7139,-2.62928 13.6182,-4.69023 20.5265,-6.70085 0.7092,-0.008 1.4549,-0.88522 0.5557,-1.26727 -3.7105,-2.10229 -8.0135,-2.47896 -12.17,-2.89274 -4.5979,-0.63307 -9.7971,-0.54825 -13.4651,-3.85109 -2.2705,-2.13813 -2.9836,-5.52829 -5.4461,-7.58415 -2.9914,-2.88783 -6.9443,-4.81761 -11.1471,-4.9001 -1.3314,-0.09 -2.6668,-0.10672 -4.0009,-0.0953 z"
           id="path6655-7-7-0-3-6-6"
           sodipodi:nodetypes="ccccccccccccccccccccccc" />
        <path
           style="fill:#8e7467;fill-opacity:1;stroke:none;stroke-width:1px;stroke-linecap:butt;stroke-linejoin:miter;stroke-opacity:1"
           d="m 4183.7725,283.19627 c -1.0885,-3.41269 -3.6471,-6.15085 -6.364,-8.48529 -3.8921,-3.34414 -8.2648,-6.11689 -12.9047,-8.3085 -1.9723,-0.9316 -3.9999,-1.76276 -5.8649,-2.89385 -1.8651,-1.1311 -3.5862,-2.59821 -4.6389,-4.50863 -1.2197,-2.21348 -1.4462,-4.81524 -2.0473,-7.26999 -0.6414,-2.61939 -1.7235,-5.10612 -2.6151,-7.65126 -0.8916,-2.54513 -1.601,-5.2125 -1.4508,-7.90509 0.2012,-3.60687 1.9144,-6.9349 2.8285,-10.42982 1.3046,-4.98792 0.9639,-10.24212 0.5303,-15.37957 -1.3665,-16.19151 -3.566,-32.36905 -3.182,-48.61359 0.082,-3.48502 0.284,-6.96961 0.7071,-10.42983 0.1423,-1.16406 0.31,-2.32675 0.5746,-3.46924 0.1229,-0.53051 0.2706,-1.06559 0.5634,-1.5247 0.086,-0.13497 0.1853,-0.26348 0.3094,-0.3646 0.2581,-0.21031 0.5974,-0.28379 0.906,-0.4088 0.31,-0.12558 0.5948,-0.30675 0.8618,-0.50823 0.9222,-0.696 1.6439,-1.64371 2.1213,-2.69585 0.4756,-1.04823 0.712,-2.19149 0.8286,-3.33666 0.459,-4.5081 -0.9312,-9.09912 -3.425,-12.8826 -1.2697,-1.92641 -2.8105,-3.65648 -4.3311,-5.39169 -14.1398,-16.13489 -27.04,-33.361599 -38.4489,-51.530404 -4.2874,-6.827748 -8.4176,-13.857332 -14.0537,-19.622213 -2.4436,-2.499421 -5.1677,-4.749214 -8.2202,-6.452349 -6.8841,-3.841004 -15.1259,-4.752827 -21.9203,-8.750447 -5.1579,-3.034752 -9.1758,-7.669985 -14.0537,-11.136932 -0.4806,-0.34158 -0.9801,-0.676833 -1.5468,-0.839689 -0.319,-0.09168 -0.6577,-0.126202 -0.9849,-0.07031 -0.3271,0.05589 -0.6422,0.205808 -0.8713,0.445963 -0.2395,0.251089 -0.3747,0.58729 -0.4372,0.928643 -0.062,0.341353 -0.057,0.691073 -0.049,1.037997 0.2876,11.849386 4.1181,23.354895 4.9497,35.178563 0.7289,10.363846 -0.8453,20.941446 1.4565,31.0727 2.5292,11.132198 9.5727,20.776328 17.8122,28.677818 7.4464,7.14092 16.0745,13.24249 21.9203,21.74354 2.7466,3.99418 4.8262,8.48282 5.7864,13.23417 0.9603,4.75136 0.7733,9.77072 -0.8366,14.34299 -2.1231,6.02981 -6.5506,10.97253 -9.1924,16.79379 -2.9926,6.59413 -3.5667,14.05664 -3.0641,21.28059 0.5027,7.22394 2.0294,14.33227 3.0641,21.49937 1.2721,8.81095 1.7916,17.86375 -0.1057,26.56153 -1.8972,8.69779 -6.4279,17.06974 -13.6829,22.22883 -4.1181,2.92842 -8.9584,4.74042 -12.9955,7.77954 -2.0186,1.51955 -3.8355,3.36222 -5.0393,5.58359 -1.2038,2.22137 -1.7585,4.84823 -1.2339,7.31975 0.4391,2.06882 1.609,3.93741 3.1062,5.4312 1.4971,1.49379 3.3124,2.63507 5.2023,3.58441 5.7201,2.87336 12.1871,4.05398 18.5881,4.10362 6.401,0.0496 12.7641,-0.99556 19.013,-2.38376 12.4977,-2.7764 24.9068,-6.96248 37.7058,-6.66961 9.661,0.22107 19.373,2.99899 28.8681,1.20312 4.7476,-0.89793 9.3852,-3.02778 12.5817,-6.65103 1.5983,-1.81162 2.8114,-3.97739 3.4171,-6.3161 0.6057,-2.33871 0.5917,-4.84946 -0.1424,-7.15109 z"
           id="path17465"
           inkscape:path-effect="#path-effect17467"
           inkscape:original-d="m 4183.7725,283.19627 c 14.9072,-6.30604 -4.2416,-5.65586 -6.364,-8.48529 -2.1223,-2.82942 -8.6021,-5.538 -12.9047,-8.3085 -4.3025,-2.7705 -7.0015,-4.93399 -10.5038,-7.40248 -3.5023,-2.46849 -1.3639,-4.84566 -2.0473,-7.26999 -0.6834,-2.42433 -2.7096,-10.3699 -4.0659,-15.55635 -1.3563,-5.18645 1.8867,-6.95221 2.8285,-10.42982 0.9418,-3.47761 0.3545,-10.25205 0.5303,-15.37957 0.1758,-5.12753 -2.1203,-32.40806 -3.182,-48.61359 -1.0616,-16.20553 0.4724,-6.95222 0.7071,-10.42983 0.2347,-3.47761 0.384,-2.31183 0.5746,-3.46924 0.1905,-1.15742 0.3766,-1.01547 0.5634,-1.5247 0.1869,-0.50923 0.2073,-0.24207 0.3094,-0.3646 0.1021,-0.12254 0.605,-0.27153 0.906,-0.4088 0.301,-0.13726 0.5755,-0.33782 0.8618,-0.50823 0.2862,-0.17041 1.4152,-1.79623 2.1213,-2.69585 0.7061,-0.89961 0.5534,-2.22344 0.8286,-3.33666 0.2752,-1.11322 -2.2824,-8.5874 -3.425,-12.8826 -1.1427,-4.2952 -2.8864,-3.59346 -4.3311,-5.39169 -1.4446,-1.79823 -25.6316,-34.352602 -38.4489,-51.530404 -12.8173,-17.177802 -9.3682,-13.080475 -14.0537,-19.622213 -4.6856,-6.541738 -5.4791,-4.300566 -8.2202,-6.452349 -2.741,-2.151784 -14.6125,-5.832631 -21.9203,-8.750447 -7.3077,-2.917815 -9.3681,-7.423621 -14.0537,-11.136932 -4.6856,-3.71331 -1.0302,-0.558792 -1.5468,-0.839689 -0.5166,-0.280896 -1.2364,0.251434 -1.8562,0.375651 -0.6197,0.124216 -0.3231,1.312093 -0.4861,1.96664 -0.1631,0.654547 3.3008,23.453375 4.9497,35.178563 1.649,11.725187 0.972,20.716133 1.4565,31.0727 0.4845,10.35657 11.8758,19.11955 17.8122,28.67782 5.9364,9.55828 14.6145,14.49669 21.9203,21.74354 7.3058,7.24684 3.3008,18.38577 4.9498,27.57716 1.6489,9.19139 -6.1273,11.19686 -9.1924,16.79379 -3.0652,5.59692 10e-4,28.52097 0,42.77996 0,14.25898 -9.1914,32.52791 -13.7886,48.79036 -4.5972,16.26246 -12.8448,13.78959 -19.2687,20.68288 -6.4239,6.89329 5.54,6.01141 8.3085,9.01561 2.7685,3.0042 50.2056,-3.29883 75.3069,-4.94975 25.1013,-1.65091 29.8173,-12.60907 44.7245,-18.9151 z" />
      </g>
    </g>
    <g
       inkscape:groupmode="layer"
       id="layer12"
       inkscape:label="Draw10">
      <g
         id="g18686"
         transform="translate(175.40283)">
        <path
           style="display:inline;opacity:1;fill:#8e7467;fill-opacity:1;stroke:none;stroke-width:0;stroke-opacity:0.0714285"
           d="m 4583.3152,255.30992 c -7.5988,-0.1215 -15.6546,2.72726 -20.2483,9.0365 -1.3612,1.7056 -2.1219,3.76939 -2.7812,5.80823 -0.9699,0.0412 -1.7567,-1.00837 -2.5841,-1.4727 -6.4597,-4.66466 -14.6317,-6.02937 -22.4424,-5.83176 -15.3881,0.37785 -30.721,2.13651 -45.91,4.57681 -39.8493,6.5844 -37.0508,11.84375 -81.8411,37.16635 0.063,1.11078 -0.4563,0.58114 0.2386,0.64008 40.7307,17.3898 30.3225,21.09728 63.3573,22.11721 12.1385,0.16465 24.3048,0.0329 36.3802,-1.33752 14.4374,-1.42981 28.7213,-4.26489 42.7158,-8.01312 0.757,-0.31563 1.6941,-0.17496 2.3643,-0.53522 0.8467,-0.34534 2.0477,-0.22589 3.0012,-0.53626 6.9078,-1.24388 13.3208,-4.44822 18.8159,-8.76225 8.6518,-6.58003 16.1816,-14.49176 24.5337,-21.41338 2.9545,-1.77774 6.3564,-2.81835 9.5471,-4.15147 6.7139,-2.62928 13.6182,-4.69023 20.5265,-6.70085 0.7092,-0.008 1.4549,-0.88522 0.5557,-1.26727 -3.7105,-2.10229 -8.0135,-2.47896 -12.17,-2.89274 -4.5979,-0.63307 -9.7971,-0.54825 -13.4651,-3.85109 -2.2705,-2.13813 -2.9836,-5.52829 -5.4461,-7.58415 -2.9914,-2.88783 -6.9443,-4.81761 -11.1471,-4.9001 -1.3314,-0.09 -2.6668,-0.10672 -4.0009,-0.0953 z"
           id="path6655-7-7-0-3-6-0"
           sodipodi:nodetypes="ccccccccccccccccccccccc" />
        <path
           style="fill:#8e7467;fill-opacity:1;stroke:none;stroke-width:1px;stroke-linecap:butt;stroke-linejoin:miter;stroke-opacity:1"
           d="m 4549,268.25 c -0.6908,-3.79779 -2.2758,-7.51523 -5,-10.25 -1.5778,-1.58393 -3.4832,-2.79302 -5.2726,-4.13327 -1.7895,-1.34026 -3.5152,-2.87328 -4.5274,-4.86673 -0.7316,-1.44076 -1.0556,-3.06394 -1.1134,-4.67875 -0.058,-1.61482 0.1423,-3.22831 0.4134,-4.82125 1.0014,-5.88376 2.9724,-11.5825 3.75,-17.5 1.2592,-9.58198 -0.6563,-19.26314 -2.5,-28.75 -1.9685,-10.12864 -3.9029,-20.39227 -8.25,-29.75 -2.8725,-6.1834 -6.7606,-11.86867 -11.25,-17 -5.6191,-6.42255 -12.1542,-11.96969 -18.2041,-17.98815 -6.05,-6.01846 -11.7101,-12.65714 -15.0459,-20.51185 -2.014,-4.74228 -3.1324,-9.816108 -4.9624,-14.632382 C 4475.2077,88.551345 4472.5054,83.830007 4468.2,81 c -2.1694,-1.425955 -4.645,-2.305611 -6.95,-3.5 -2.2026,-1.141369 -4.2535,-2.572573 -6.5176,-3.586605 -1.132,-0.507017 -2.3182,-0.908247 -3.5443,-1.095971 C 4449.962,72.6297 4448.6929,72.659979 4447.5,73 c -1.3053,0.372065 -2.4875,1.104871 -3.5128,1.99426 -1.0253,0.889388 -1.9035,1.934679 -2.7372,3.00574 -2.58,3.314448 -4.7898,6.945657 -6.2553,10.881906 -1.4656,3.93625 -2.1714,8.189596 -1.7447,12.368094 0.5602,5.48639 3.0083,10.56799 5.0773,15.6801 2.0689,5.1121 3.8127,10.63569 2.8727,16.0699 -0.7559,4.36982 -3.2019,8.34334 -3.7,12.75 -0.3086,2.72996 0.1568,5.51786 1.138,8.08399 0.9813,2.56613 2.4668,4.91932 4.1974,7.05313 3.461,4.26762 7.8636,7.65062 11.9146,11.36288 8.4917,7.78165 15.5625,17.19366 20.1498,27.75872 4.5873,10.56505 6.6409,22.29584 5.3502,33.74128 -0.9054,8.0292 -3.4121,15.78901 -4.7867,23.75133 -1.3746,7.96231 -1.5309,16.49885 2.0367,23.74867 2.0015,4.06725 5.0819,7.52252 8.5,10.5 5.532,4.81893 12.0845,8.52414 19.1732,10.4149 7.0887,1.89077 14.7148,1.92622 21.7181,-0.25975 7.0033,-2.18596 13.3395,-6.6396 17.4686,-12.70388 4.1291,-6.06428 5.9531,-13.73317 4.6401,-20.95127 z"
           id="path17774"
           inkscape:path-effect="#path-effect17776"
           inkscape:original-d="m 4549,268.25 c 20.999,-7.83433 -3.3323,-6.83233 -5,-10.25 -1.6677,-3.41767 -6.5323,-5.999 -9.8,-9 -3.2677,-3.001 -0.4657,-6.33233 -0.7,-9.5 -0.2343,-3.16767 2.501,-11.66567 3.75,-17.5 1.249,-5.83433 -1.6657,-19.16567 -2.5,-28.75 -0.8343,-9.58433 -5.499,-19.83233 -8.25,-29.75 -2.751,-9.91767 -7.499,-11.33233 -11.25,-17 -3.751,-5.66767 -22.1657,-25.66567 -33.25,-38.5 -11.0843,-12.834334 -9.199,-17.999 -13.8,-27 -4.601,-9.001 -4.6323,-2.332333 -6.95,-3.5 -2.3177,-1.167667 -9.1657,-2.999 -13.75,-4.5 -4.5843,-1.501 -4.1657,3.334333 -6.25,5 -2.0843,1.665666 -5.3323,15.501 -8,23.25 -2.6677,7.749 5.301,21.16767 7.95,31.75 2.649,10.58233 -2.4657,8.501 -3.7,12.75 -1.2343,4.249 11.501,17.66767 17.25,26.5 5.749,8.83233 17.001,41.001 25.5,61.5 8.499,20.499 -1.8323,31.66767 -2.75,47.5 -0.9177,15.83233 5.6677,7.001 8.5,10.5 2.8323,3.499 42.001,-15.66567 63,-23.5 z" />
        <path
           style="fill:#8e7467;fill-opacity:1;stroke:none;stroke-width:1px;stroke-linecap:butt;stroke-linejoin:miter;stroke-opacity:1"
           d="m 4443.5,75.25 c 2.5079,-1.071074 5.2849,-1.504984 8,-1.25 2.9073,0.273033 5.7038,1.32049 8.25,2.75 4.3529,2.443808 8.0189,5.995871 11,10 4.6402,6.232716 7.6492,13.50093 11.5,20.25 7.0956,12.43615 16.9903,23.01218 27,33.25 6.6989,6.85156 13.6641,13.86406 17.25,22.75 1.9388,4.80433 2.8016,9.95973 4,15 2.3216,9.76434 5.9485,19.2687 7,29.25 0.9176,8.70966 -0.1689,17.55808 -2.5,26 -0.718,2.60022 -1.5564,5.18281 -1.8976,7.85868 -0.3412,2.67587 -0.1512,5.50026 1.0976,7.89132 0.9151,1.75209 2.3503,3.18332 3.9115,4.39562 1.5613,1.21229 3.2625,2.23034 4.8885,3.35438 3.0797,2.129 5.9105,4.66368 8.1065,7.69597 2.196,3.03228 3.7408,6.58182 4.1435,10.30403 0.2918,2.69721 -0.024,5.46874 -1,8 -1.5652,4.05872 -4.7944,7.36636 -8.6243,9.42907 -3.8299,2.06272 -8.2267,2.9378 -12.5767,2.95849 -8.7,0.0414 -17.0283,-3.1879 -25.299,-5.88756 -4.3492,-1.41963 -8.7561,-2.70875 -12.9262,-4.59043 -4.1701,-1.88167 -8.1367,-4.4019 -11.0738,-7.90957 -2.8068,-3.35207 -4.5688,-7.48949 -5.55,-11.75 -2.12,-9.20496 -0.716,-18.80697 -0.95,-28.25 -0.4165,-16.80744 -6.0152,-32.97949 -10.25,-49.25 -2.1936,-8.42811 -4.0753,-17.06428 -8.2092,-24.72953 -2.0669,-3.83262 -4.6987,-7.3937 -7.9923,-10.24205 -3.2937,-2.84834 -7.2705,-4.96585 -11.5485,-5.77842 -0.8244,-0.15659 -1.6588,-0.26521 -2.4724,-0.47075 -0.8136,-0.20555 -1.6149,-0.51446 -2.2776,-1.02925 -0.6397,-0.49692 -1.1316,-1.17659 -1.4274,-1.93067 -0.2958,-0.75407 -0.3975,-1.58027 -0.3187,-2.38645 0.1576,-1.61237 1.0352,-3.10667 2.2461,-4.18288 1.8094,-1.60811 4.2574,-2.3056 6.2,-3.75 1.6381,-1.218 2.8637,-2.93935 3.6666,-4.81613 0.8028,-1.87679 1.1988,-3.90788 1.365,-5.94239 0.3324,-4.06902 -0.2344,-8.16394 -0.032,-12.24148 0.2154,-4.332 1.2938,-8.56705 2.0669,-12.834949 0.7732,-4.267896 1.2379,-8.695697 0.2331,-12.915051 -0.8017,-3.366514 -2.5434,-6.503986 -4.9766,-8.964844"
           id="path18003"
           inkscape:path-effect="#path-effect18005"
           inkscape:original-d="m 4443.5,75.25 c -1.6677,-3.001 5.3343,-0.832334 8,-1.25 2.6657,-0.417667 5.501,1.834333 8.25,2.75 2.749,0.915666 7.3343,6.667666 11,10 3.6657,3.332333 7.6677,13.501 11.5,20.25 3.8323,6.749 18.001,22.16767 27,33.25 8.999,11.08233 11.501,15.16767 17.25,22.75 5.749,7.58233 2.6677,10.001 4,15 1.3323,4.999 4.6677,19.501 7,29.25 2.3323,9.749 -1.6657,17.33433 -2.5,26 -0.8343,8.66567 -0.5323,10.501 -0.8,15.75 -0.2677,5.249 5.8677,5.16767 8.8,7.75 2.9323,2.58233 8.1677,12.001 12.25,18 4.0823,5.999 -0.6657,5.33433 -1,8 -0.3343,2.66567 -30.999,4.33433 -46.5,6.5 -15.501,2.16567 -15.999,-8.33233 -24,-12.5 -8.001,-4.16767 -3.699,-7.83233 -5.55,-11.75 -1.851,-3.91767 -0.6323,-18.83233 -0.95,-28.25 -0.3177,-9.41767 -6.8323,-32.83233 -10.25,-49.25 -3.4177,-16.41767 -18.499,-27.16567 -27.75,-40.75 -9.251,-13.58433 -3.1657,-0.999 -4.75,-1.5 -1.5843,-0.501 0.3343,-5.66567 0.5,-8.5 0.1657,-2.83433 4.1343,-2.499 6.2,-3.75 2.0657,-1.251 3.3343,-15.33233 5,-23 1.6657,-7.66767 1.5343,-17.165667 2.3,-25.75 0.7657,-8.584334 -3.3167,-5.975563 -4.9766,-8.964844" />
      </g>
    </g>
  </g>
</svg>
